<?xml version="1.0" encoding="utf-8"?>
<!-- Generator: Adobe Illustrator 22.1.0, SVG Export Plug-In . SVG Version: 6.00 Build 0)  -->
<svg version="1.1"
	 id="svg8" inkscape:version="0.92.1 r15371" sodipodi:docname="video-bkg-sm-t.svg" xmlns:cc="http://creativecommons.org/ns#" xmlns:dc="http://purl.org/dc/elements/1.1/" xmlns:inkscape="http://www.inkscape.org/namespaces/inkscape" xmlns:rdf="http://www.w3.org/1999/02/22-rdf-syntax-ns#" xmlns:sodipodi="http://sodipodi.sourceforge.net/DTD/sodipodi-0.dtd" xmlns:svg="http://www.w3.org/2000/svg"
	 xmlns="http://www.w3.org/2000/svg" xmlns:xlink="http://www.w3.org/1999/xlink" x="0px" y="0px" viewBox="0 0 480.2 270.1"
	 style="enable-background:new 0 0 480.2 270.1;" xml:space="preserve">
<style type="text/css">
	.st0{fill:#151313;fill-opacity:0.6667;}
	.st1{fill:#FFFFFF;}
</style>
<sodipodi:namedview  bordercolor="#666666" borderopacity="1.0" id="base" inkscape:current-layer="layer1" inkscape:cx="267.16153" inkscape:cy="108.17103" inkscape:document-units="mm" inkscape:pageopacity="0.0" inkscape:pageshadow="2" inkscape:window-height="1377" inkscape:window-maximized="1" inkscape:window-width="2560" inkscape:window-x="-8" inkscape:window-y="-8" inkscape:zoom="1.5629332" pagecolor="#ffffff" showgrid="false">
	</sodipodi:namedview>
<g id="layer1" transform="translate(-40.528118,-116.06991)" inkscape:groupmode="layer" inkscape:label="Layer 1">
	<rect id="rect4496" x="40.5" y="116.1" class="st0" width="480.2" height="270.1"/>
	<g id="g7826" transform="translate(-1.8355713e-6,4.5399094e-6)">
		<g id="Layer_2_1_" transform="matrix(0.47630834,0,0,0.47630834,115.0305,149.30263)">
			<g id="Layer_1-2">
				<g id="Canvas">
					<g id="coursor_copy_3">
						<path id="path0_stroke" inkscape:connector-curvature="0" class="st1" d="M399.2,199.6l2.5,1.4l0,0L399.2,199.6z M399.2,169.8
							l2.5-1.4l0,0L399.2,169.8z M385.6,145.8l-2.5,1.4l0,0L385.6,145.8z M307.4,145.8l-2.5-1.4l0,0L307.4,145.8z M293.7,169.8
							l2.5,1.4l0,0L293.7,169.8z M293.7,199.6l2.5-1.4l0,0L293.7,199.6z M307.4,223.6l-2.5,1.4l0,0L307.4,223.6z M385.6,223.6
							l-2.5-1.4l0,0L385.6,223.6z M401.7,200.9c5.7-10.1,5.7-22.5,0-32.7l-4.9,2.8c4.8,8.4,4.8,18.7,0,27L401.7,200.9z M401.7,168.3
							l-6.8-11.9l-6.8-12l-4.9,2.8l6.8,12l6.8,12L401.7,168.3z M388.1,144.4c-5.7-10.1-16.4-16.3-27.9-16.4v5.7
							c9.5,0,18.3,5.2,23,13.5L388.1,144.4z M360.1,128h-27.3v5.7h27.3L360.1,128z M332.9,128c-11.6,0-22.3,6.3-27.9,16.4l4.9,2.8
							c4.7-8.3,13.5-13.5,23-13.5V128z M304.9,144.4l-6.8,12l-6.8,12l4.9,2.8l6.8-12l6.8-12L304.9,144.4z M291.3,168.4
							c-5.7,10.1-5.7,22.5,0,32.7l4.9-2.8c-4.8-8.4-4.8-18.7,0-27L291.3,168.4z M291.3,201l6.8,12l6.8,12l4.9-2.8l-6.8-12l-6.8-12
							L291.3,201z M304.9,225c5.7,10.1,16.4,16.3,27.9,16.4v-5.7c-9.5,0-18.3-5.2-23-13.5L304.9,225z M332.9,241.4h27.3v-5.7h-27.3
							L332.9,241.4z M360.2,241.4c11.6,0,22.2-6.3,27.9-16.4l-4.9-2.8c-4.7,8.3-13.5,13.5-23,13.5L360.2,241.4z M388.1,225l6.8-12
							l6.8-12l-4.9-2.8l-6.8,12l-6.8,12L388.1,225z"/>
					</g>
				</g>
			</g>
		</g>
		<path id="path4525" inkscape:connector-curvature="0" class="st1" d="M276.3,227.7v2.1v16.2l13.8-8.9L276.3,227.7z M278.6,232
			l7.5,5.1l-7.5,4.9V232z"/>
	</g>
</g>
</svg>
